{"asset":{"version":"2.0","generator":"Blockbench 5.1.4 glTF exporter"},"scenes":[{"nodes":[10],"name":"blockbench_export"}],"scene":0,"nodes":[{"translation":[0,3.75,0],"name":"head"},{"translation":[0,7.5,0],"name":"body"},{"rotation":[-0.08715574274765817,0,0,0.9961946980917455],"translation":[3.4375,13.125,0],"name":"right arm"},{"rotation":[0.08715574274765817,0,0,0.9961946980917455],"translation":[-3.75,13.125,0],"name":"left arm"},{"name":"arm","children":[2,3]},{"translation":[-0.13665383781545465,-11.3321715694759,0.31196051360371263],"name":"main body","children":[1,4]},{"rotation":[-0.08715574274765817,0,0,0.9961946980917455],"translation":[-1.25,6.25,-0.7500000000000001],"name":"left leg"},{"rotation":[0.08715574274765817,0,0,0.9961946980917455],"translation":[1.25,6.25,-0.18750000000000003],"name":"right leg"},{"translation":[-0.13665383781545465,-11.3321715694759,0.31196051360371263],"name":"leg","children":[6,7]},{"rotation":[-0.02181488503456112,0,0,0.9997620270799091],"name":"player","children":[0,5,8]},{"rotation":[-0.02181488503456112,0,0,0.9997620270799091],"translation":[0.13665383781545465,11.3321715694759,-0.31196051360371263],"name":"player","mesh":0,"children":[9],"skin":0}],"bufferViews":[{"buffer":0,"byteOffset":0,"byteLength":5184,"target":34962,"byteStride":12},{"buffer":0,"byteOffset":5184,"byteLength":5184,"target":34962,"byteStride":12},{"buffer":0,"byteOffset":10368,"byteLength":3456,"target":34962,"byteStride":8},{"buffer":0,"byteOffset":13824,"byteLength":3456,"target":34962,"byteStride":8},{"buffer":0,"byteOffset":17280,"byteLength":6912,"target":34962,"byteStride":16},{"buffer":0,"byteOffset":24192,"byteLength":864,"target":34963},{"buffer":0,"byteOffset":25056,"byteLength":640},{"buffer":0,"byteOffset":25696,"byteLength":12},{"buffer":0,"byteOffset":25708,"byteLength":48},{"buffer":0,"byteOffset":25756,"byteLength":16},{"buffer":0,"byteOffset":25772,"byteLength":64},{"buffer":0,"byteOffset":25836,"byteLength":12},{"buffer":0,"byteOffset":25848,"byteLength":48},{"buffer":0,"byteOffset":25896,"byteLength":16},{"buffer":0,"byteOffset":25912,"byteLength":64},{"buffer":0,"byteOffset":25976,"byteLength":12},{"buffer":0,"byteOffset":25988,"byteLength":48},{"buffer":0,"byteOffset":26036,"byteLength":12},{"buffer":0,"byteOffset":26048,"byteLength":36}],"buffers":[{"byteLength":26084,"uri":"data:application/octet-stream;base64,"}],"accessors":[{"bufferView":0,"componentType":5126,"count":432,"max":[4.394596099853516,9.24521255493164,3.8967294692993164],"min":[-4.667903900146484,-11.574450492858887,-2.75215482711792],"type":"VEC3"},{"bufferView":1,"componentType":5126,"count":432,"max":[1,1,1],"min":[-1,-1,-1],"type":"VEC3"},{"bufferView":2,"componentType":5126,"count":432,"max":[0.999755859375,0.999755859375],"min":[0.000244140625,0.000244140625],"type":"VEC2"},{"bufferView":3,"componentType":5123,"count":432,"max":[0,9,0,0],"min":[0,1,0,0],"type":"VEC4"},{"bufferView":4,"componentType":5126,"count":432,"max":[0,1,0,0],"min":[0,1,0,0],"type":"VEC4"},{"bufferView":5,"componentType":5123,"count":432,"max":[431],"min":[0],"type":"SCALAR"},{"bufferView":6,"componentType":5126,"count":10,"max":[1,0,0,0,0,0.9990482330322266,0.2164396196603775,0,0,0.13052618503570557,0.9990482330322266,0,3.8866539001464844,11.332171440124512,1.313894510269165,1],"min":[1,0,0,0,0,0.9762960076332092,-0.13052618503570557,0,0,-0.2164396196603775,0.9762960076332092,0,-3.3008460998535156,-3.75,-1.0050795078277588,1],"type":"MAT4"},{"bufferView":7,"componentType":5126,"count":3,"max":[0.4000000059604645],"min":[0],"type":"SCALAR"},{"bufferView":8,"componentType":5126,"count":3,"max":[0.1950438916683197,0.021768176928162575,0.0019012924749404192,0.997621476650238],"min":[-0.08713500201702118,0.021395718678832054,-0.004255873151123524,0.9805518984794617],"type":"VEC4"},{"bufferView":9,"componentType":5126,"count":4,"max":[0.800000011920929],"min":[0],"type":"SCALAR"},{"bufferView":10,"componentType":5126,"count":4,"max":[0.36235177516937256,0.021731872111558914,-0.0019012924749404192,0.995957612991333],"min":[0.08713500201702118,0.020331645384430885,-0.007906544022262096,0.931786060333252],"type":"VEC4"},{"bufferView":11,"componentType":5126,"count":3,"max":[0.4000000059604645],"min":[0],"type":"SCALAR"},{"bufferView":12,"componentType":5126,"count":3,"max":[0.1736481785774231,0,0,0.9961947202682495],"min":[-0.08715574443340302,0,0,0.9848077297210693],"type":"VEC4"},{"bufferView":13,"componentType":5126,"count":4,"max":[0.800000011920929],"min":[0],"type":"SCALAR"},{"bufferView":14,"componentType":5126,"count":4,"max":[0.35225003957748413,0,0,0.9978589415550232],"min":[0.06540312618017197,0,0,0.935905933380127],"type":"VEC4"},{"bufferView":15,"componentType":5126,"count":3,"max":[0.4000000059604645],"min":[0],"type":"SCALAR"},{"bufferView":16,"componentType":5126,"count":3,"max":[0.2797624170780182,0.021768176928162575,0.17183074355125427,0.997621476650238],"min":[-0.06538756191730499,0.010082411579787731,-0.006104437634348869,0.9598214030265808],"type":"VEC4"},{"bufferView":17,"componentType":5126,"count":3,"max":[0.4166666567325592],"min":[0],"type":"SCALAR"},{"bufferView":18,"componentType":5126,"count":3,"max":[0.1366538405418396,15.082171440124512,-0.31196051836013794],"min":[0.1366538405418396,11.332171440124512,-0.31196051836013794],"type":"VEC3"}],"materials":[{"pbrMetallicRoughness":{"metallicFactor":0,"roughnessFactor":1,"baseColorTexture":{"index":0}},"alphaMode":"MASK","alphaCutoff":0.05,"doubleSided":true}],"textures":[{"sampler":0,"source":0}],"samplers":[{"magFilter":9728,"minFilter":9728,"wrapS":33071,"wrapT":33071}],"images":[{"mimeType":"image/png","name":"SkinseedSkin_1754875232975.png","uri":"SkinseedSkin_1754875232975.png"}],"meshes":[{"primitives":[{"mode":4,"attributes":{"POSITION":0,"NORMAL":1,"TEXCOORD_0":2,"JOINTS_0":3,"WEIGHTS_0":4},"indices":5,"material":0}]}],"skins":[{"inverseBindMatrices":6,"joints":[9,0,5,1,4,2,3,8,6,7],"skeleton":9}],"animations":[{"name":"walk","samplers":[{"input":7,"output":8,"interpolation":"LINEAR"},{"input":9,"output":10,"interpolation":"LINEAR"},{"input":11,"output":12,"interpolation":"LINEAR"},{"input":13,"output":14,"interpolation":"LINEAR"}],"channels":[{"sampler":0,"target":{"node":2,"path":"rotation"}},{"sampler":1,"target":{"node":3,"path":"rotation"}},{"sampler":2,"target":{"node":6,"path":"rotation"}},{"sampler":3,"target":{"node":7,"path":"rotation"}}]},{"name":"mine","samplers":[{"input":15,"output":16,"interpolation":"LINEAR"}],"channels":[{"sampler":0,"target":{"node":2,"path":"rotation"}}]},{"name":"jump","samplers":[{"input":17,"output":18,"interpolation":"LINEAR"}],"channels":[{"sampler":0,"target":{"node":9,"path":"translation"}}]}]}