{"asset":{"version":"2.0","generator":"Blockbench 5.1.4 glTF exporter"},"scenes":[{"nodes":[21],"name":"blockbench_export"}],"scene":0,"nodes":[{"rotation":[0.052286135746521314,-0.04355960649848431,0.0022828760580830823,0.9976790612052038],"translation":[0,-27.428571428571427,-2.2857142857142856],"name":"Head","mesh":0},{"rotation":[0.052286135746521314,-0.04355960649848431,0.0022828760580830823,0.9976790612052038],"translation":[0,-27.428571428571427,-2.2857142857142856],"name":"Hat Layer","mesh":1},{"translation":[0,6.857142857142857,0],"name":"head","children":[0,1]},{"rotation":[0.08715574274765817,0,0,0.9961946980917455],"translation":[-6.285714285714286,-23.62670857142857,-4.266788571428571],"name":"Right Arm","mesh":2},{"rotation":[0.08715574274765817,0,0,0.9961946980917455],"translation":[-6.285714285714286,-23.62670857142857,-4.266788571428571],"name":"Right Arm Layer","mesh":3},{"rotation":[-0.08715574274765817,0,0,0.9961946980917455],"translation":[6.285714285714286,24,0],"name":"right arm","children":[3,4]},{"rotation":[-0.10452846326765346,0,0,0.9945218953682733],"translation":[6.857142857142857,-23.463051428571426,5.1086857142857145],"name":"Left Arm","mesh":4},{"rotation":[-0.08280820751220434,0,0,0.9965655024977614],"translation":[0.5714285714285714,-0.034479999999998005,-0.03417142857142857],"name":"Left Arm Layer","mesh":5},{"rotation":[0.08715574274765817,0,0,0.9961946980917455],"translation":[-6.857142857142857,24,0],"name":"left arm","children":[6,7]},{"name":"arm","children":[5,8]},{"translation":[0,-13.714285714285714,0],"name":"Body","mesh":6},{"translation":[0,-13.714285714285714,0],"name":"Body Layer","mesh":7},{"translation":[0,13.714285714285714,0],"name":"body","children":[10,11]},{"translation":[-0.2498857142857143,-20.72168,0.5704457142857142],"name":"main body","children":[9,12]},{"rotation":[0.08714245908613182,-0.0015210950893208787,-0.017385999577626102,0.9960429735271656],"translation":[1.8130399999999998,-11.287771428571427,-0.5714285714285714],"name":"Left Leg","mesh":8},{"rotation":[0.08714245908613182,-0.0015210950893208787,-0.017385999577626102,0.9960429735271656],"translation":[1.8130399999999998,-11.287771428571427,-0.5714285714285714],"name":"Left Leg Layer","mesh":9},{"rotation":[-0.08715574274765817,0,0,0.9961946980917455],"translation":[-2.2857142857142856,11.428571428571427,-1.3714285714285712],"name":"left leg","children":[14,15]},{"rotation":[-0.09583113336591162,-0.0016727134194323685,0.01737202675445656,0.995244597369945],"translation":[-1.8145599999999997,-11.244182857142858,2.6168114285714283],"name":"Right Leg","mesh":10},{"rotation":[-0.09583113336591162,-0.0016727134194323685,0.01737202675445656,0.995244597369945],"translation":[-1.8145599999999997,-11.244182857142858,2.6168114285714283],"name":"Right Leg Layer","mesh":11},{"rotation":[0.08715574274765817,0,0,0.9961946980917455],"translation":[2.2857142857142856,11.428571428571427,-0.3428571428571428],"name":"right leg","children":[17,18]},{"translation":[-0.2498857142857143,-20.72168,0.5704457142857142],"name":"leg","children":[16,19]},{"rotation":[-0.02181488503456112,0,0,0.9997620270799091],"translation":[0.2498857142857143,20.72168,-0.5704457142857142],"name":"player","children":[2,13,20]}],"bufferViews":[{"buffer":0,"byteOffset":0,"byteLength":432,"target":34962,"byteStride":12},{"buffer":0,"byteOffset":432,"byteLength":432,"target":34962,"byteStride":12},{"buffer":0,"byteOffset":864,"byteLength":288,"target":34962,"byteStride":8},{"buffer":0,"byteOffset":1152,"byteLength":72,"target":34963},{"buffer":0,"byteOffset":1224,"byteLength":432,"target":34962,"byteStride":12},{"buffer":0,"byteOffset":1656,"byteLength":432,"target":34962,"byteStride":12},{"buffer":0,"byteOffset":2088,"byteLength":288,"target":34962,"byteStride":8},{"buffer":0,"byteOffset":2376,"byteLength":72,"target":34963},{"buffer":0,"byteOffset":2448,"byteLength":432,"target":34962,"byteStride":12},{"buffer":0,"byteOffset":2880,"byteLength":432,"target":34962,"byteStride":12},{"buffer":0,"byteOffset":3312,"byteLength":288,"target":34962,"byteStride":8},{"buffer":0,"byteOffset":3600,"byteLength":72,"target":34963},{"buffer":0,"byteOffset":3672,"byteLength":432,"target":34962,"byteStride":12},{"buffer":0,"byteOffset":4104,"byteLength":432,"target":34962,"byteStride":12},{"buffer":0,"byteOffset":4536,"byteLength":288,"target":34962,"byteStride":8},{"buffer":0,"byteOffset":4824,"byteLength":72,"target":34963},{"buffer":0,"byteOffset":4896,"byteLength":432,"target":34962,"byteStride":12},{"buffer":0,"byteOffset":5328,"byteLength":432,"target":34962,"byteStride":12},{"buffer":0,"byteOffset":5760,"byteLength":288,"target":34962,"byteStride":8},{"buffer":0,"byteOffset":6048,"byteLength":72,"target":34963},{"buffer":0,"byteOffset":6120,"byteLength":432,"target":34962,"byteStride":12},{"buffer":0,"byteOffset":6552,"byteLength":432,"target":34962,"byteStride":12},{"buffer":0,"byteOffset":6984,"byteLength":288,"target":34962,"byteStride":8},{"buffer":0,"byteOffset":7272,"byteLength":72,"target":34963},{"buffer":0,"byteOffset":7344,"byteLength":432,"target":34962,"byteStride":12},{"buffer":0,"byteOffset":7776,"byteLength":432,"target":34962,"byteStride":12},{"buffer":0,"byteOffset":8208,"byteLength":288,"target":34962,"byteStride":8},{"buffer":0,"byteOffset":8496,"byteLength":72,"target":34963},{"buffer":0,"byteOffset":8568,"byteLength":432,"target":34962,"byteStride":12},{"buffer":0,"byteOffset":9000,"byteLength":432,"target":34962,"byteStride":12},{"buffer":0,"byteOffset":9432,"byteLength":288,"target":34962,"byteStride":8},{"buffer":0,"byteOffset":9720,"byteLength":72,"target":34963},{"buffer":0,"byteOffset":9792,"byteLength":432,"target":34962,"byteStride":12},{"buffer":0,"byteOffset":10224,"byteLength":432,"target":34962,"byteStride":12},{"buffer":0,"byteOffset":10656,"byteLength":288,"target":34962,"byteStride":8},{"buffer":0,"byteOffset":10944,"byteLength":72,"target":34963},{"buffer":0,"byteOffset":11016,"byteLength":432,"target":34962,"byteStride":12},{"buffer":0,"byteOffset":11448,"byteLength":432,"target":34962,"byteStride":12},{"buffer":0,"byteOffset":11880,"byteLength":288,"target":34962,"byteStride":8},{"buffer":0,"byteOffset":12168,"byteLength":72,"target":34963},{"buffer":0,"byteOffset":12240,"byteLength":432,"target":34962,"byteStride":12},{"buffer":0,"byteOffset":12672,"byteLength":432,"target":34962,"byteStride":12},{"buffer":0,"byteOffset":13104,"byteLength":288,"target":34962,"byteStride":8},{"buffer":0,"byteOffset":13392,"byteLength":72,"target":34963},{"buffer":0,"byteOffset":13464,"byteLength":432,"target":34962,"byteStride":12},{"buffer":0,"byteOffset":13896,"byteLength":432,"target":34962,"byteStride":12},{"buffer":0,"byteOffset":14328,"byteLength":288,"target":34962,"byteStride":8},{"buffer":0,"byteOffset":14616,"byteLength":72,"target":34963},{"buffer":0,"byteOffset":14688,"byteLength":12},{"buffer":0,"byteOffset":14700,"byteLength":48},{"buffer":0,"byteOffset":14748,"byteLength":16},{"buffer":0,"byteOffset":14764,"byteLength":64},{"buffer":0,"byteOffset":14828,"byteLength":12},{"buffer":0,"byteOffset":14840,"byteLength":48},{"buffer":0,"byteOffset":14888,"byteLength":16},{"buffer":0,"byteOffset":14904,"byteLength":64},{"buffer":0,"byteOffset":14968,"byteLength":12},{"buffer":0,"byteOffset":14980,"byteLength":48},{"buffer":0,"byteOffset":15028,"byteLength":12},{"buffer":0,"byteOffset":15040,"byteLength":36}],"buffers":[{"byteLength":15076,"uri":"data:application/octet-stream;base64,"}],"accessors":[{"bufferView":0,"componentType":5126,"count":36,"max":[4.5714287757873535,36.57143020629883,4.5714287757873535],"min":[-4.5714287757873535,27.428571701049805,-4.5714287757873535],"type":"VEC3"},{"bufferView":1,"componentType":5126,"count":36,"max":[1,1,1],"min":[-1,-1,-1],"type":"VEC3"},{"bufferView":2,"componentType":5126,"count":36,"max":[0.4997556209564209,0.2497556209564209],"min":[0.0002443749981466681,0.00024437904357910156],"type":"VEC2"},{"bufferView":3,"componentType":5123,"count":36,"max":[35],"min":[0],"type":"SCALAR"},{"bufferView":4,"componentType":5126,"count":36,"max":[5.142857074737549,37.14285659790039,5.142857074737549],"min":[-5.142857074737549,26.85714340209961,-5.142857074737549],"type":"VEC3"},{"bufferView":5,"componentType":5126,"count":36,"max":[1,1,1],"min":[-1,-1,-1],"type":"VEC3"},{"bufferView":6,"componentType":5126,"count":36,"max":[0.9997556209564209,0.2497556209564209],"min":[0.5002443790435791,0.00024437904357910156],"type":"VEC2"},{"bufferView":7,"componentType":5123,"count":36,"max":[35],"min":[0],"type":"SCALAR"},{"bufferView":8,"componentType":5126,"count":36,"max":[8,26.85714340209961,2.2857143878936768],"min":[4.5714287757873535,13.142857551574707,-2.2857143878936768],"type":"VEC3"},{"bufferView":9,"componentType":5126,"count":36,"max":[1,1,1],"min":[-1,-1,-1],"type":"VEC3"},{"bufferView":10,"componentType":5126,"count":36,"max":[0.8435056209564209,0.4997556209564209],"min":[0.6252443790435791,0.2502443790435791],"type":"VEC2"},{"bufferView":11,"componentType":5123,"count":36,"max":[35],"min":[0],"type":"SCALAR"},{"bufferView":12,"componentType":5126,"count":36,"max":[8.285714149475098,27.14285659790039,2.5714285373687744],"min":[4.285714149475098,12.857142448425293,-2.5714285373687744],"type":"VEC3"},{"bufferView":13,"componentType":5126,"count":36,"max":[1,1,1],"min":[-1,-1,-1],"type":"VEC3"},{"bufferView":14,"componentType":5126,"count":36,"max":[0.8435056209564209,0.7497556209564209],"min":[0.6252443790435791,0.5002443790435791],"type":"VEC2"},{"bufferView":15,"componentType":5123,"count":36,"max":[35],"min":[0],"type":"SCALAR"},{"bufferView":16,"componentType":5126,"count":36,"max":[-4.5714287757873535,26.85714340209961,2.2857143878936768],"min":[-8,13.142857551574707,-2.2857143878936768],"type":"VEC3"},{"bufferView":17,"componentType":5126,"count":36,"max":[1,1,1],"min":[-1,-1,-1],"type":"VEC3"},{"bufferView":18,"componentType":5126,"count":36,"max":[0.7185056209564209,0.9997556209564209],"min":[0.5002443790435791,0.7502443790435791],"type":"VEC2"},{"bufferView":19,"componentType":5123,"count":36,"max":[35],"min":[0],"type":"SCALAR"},{"bufferView":20,"componentType":5126,"count":36,"max":[2,3.156994342803955,2.730823040008545],"min":[-2,-11.1287202835083,-2.412034273147583],"type":"VEC3"},{"bufferView":21,"componentType":5126,"count":36,"max":[1,1,1],"min":[-1,-1,-1],"type":"VEC3"},{"bufferView":22,"componentType":5126,"count":36,"max":[0.9685056209564209,0.9997556209564209],"min":[0.7502443790435791,0.7502443790435791],"type":"VEC2"},{"bufferView":23,"componentType":5123,"count":36,"max":[35],"min":[0],"type":"SCALAR"},{"bufferView":24,"componentType":5126,"count":36,"max":[4.5714287757873535,27.428571701049805,2.2857143878936768],"min":[-4.5714287757873535,13.714285850524902,-2.2857143878936768],"type":"VEC3"},{"bufferView":25,"componentType":5126,"count":36,"max":[1,1,1],"min":[-1,-1,-1],"type":"VEC3"},{"bufferView":26,"componentType":5126,"count":36,"max":[0.6247556209564209,0.4997556209564209],"min":[0.2502443790435791,0.2502443790435791],"type":"VEC2"},{"bufferView":27,"componentType":5123,"count":36,"max":[35],"min":[0],"type":"SCALAR"},{"bufferView":28,"componentType":5126,"count":36,"max":[4.857142925262451,27.714284896850586,2.5714285373687744],"min":[-4.857142925262451,13.428571701049805,-2.5714285373687744],"type":"VEC3"},{"bufferView":29,"componentType":5126,"count":36,"max":[1,1,1],"min":[-1,-1,-1],"type":"VEC3"},{"bufferView":30,"componentType":5126,"count":36,"max":[0.6247556209564209,0.7497556209564209],"min":[0.2502443790435791,0.5002443790435791],"type":"VEC2"},{"bufferView":31,"componentType":5123,"count":36,"max":[35],"min":[0],"type":"SCALAR"},{"bufferView":32,"componentType":5126,"count":36,"max":[0.11428571492433548,13.714285850524902,2.2857143878936768],"min":[-4.4571428298950195,0,-2.2857143878936768],"type":"VEC3"},{"bufferView":33,"componentType":5126,"count":36,"max":[1,1,1],"min":[-1,-1,-1],"type":"VEC3"},{"bufferView":34,"componentType":5126,"count":36,"max":[0.4997556209564209,0.9997556209564209],"min":[0.2502443790435791,0.7502443790435791],"type":"VEC2"},{"bufferView":35,"componentType":5123,"count":36,"max":[35],"min":[0],"type":"SCALAR"},{"bufferView":36,"componentType":5126,"count":36,"max":[0.4000000059604645,14,2.5714285373687744],"min":[-4.742857456207275,-0.2857142984867096,-2.5714285373687744],"type":"VEC3"},{"bufferView":37,"componentType":5126,"count":36,"max":[1,1,1],"min":[-1,-1,-1],"type":"VEC3"},{"bufferView":38,"componentType":5126,"count":36,"max":[0.2497556209564209,0.9997556209564209],"min":[0.0002443749981466681,0.7502443790435791],"type":"VEC2"},{"bufferView":39,"componentType":5123,"count":36,"max":[35],"min":[0],"type":"SCALAR"},{"bufferView":40,"componentType":5126,"count":36,"max":[4.4571428298950195,13.714285850524902,2.2857143878936768],"min":[-0.11428571492433548,0,-2.2857143878936768],"type":"VEC3"},{"bufferView":41,"componentType":5126,"count":36,"max":[1,1,1],"min":[-1,-1,-1],"type":"VEC3"},{"bufferView":42,"componentType":5126,"count":36,"max":[0.2497556209564209,0.4997556209564209],"min":[0.0002443749981466681,0.2502443790435791],"type":"VEC2"},{"bufferView":43,"componentType":5123,"count":36,"max":[35],"min":[0],"type":"SCALAR"},{"bufferView":44,"componentType":5126,"count":36,"max":[4.742857456207275,14,2.5714285373687744],"min":[-0.4000000059604645,-0.2857142984867096,-2.5714285373687744],"type":"VEC3"},{"bufferView":45,"componentType":5126,"count":36,"max":[1,1,1],"min":[-1,-1,-1],"type":"VEC3"},{"bufferView":46,"componentType":5126,"count":36,"max":[0.2497556209564209,0.7497556209564209],"min":[0.0002443749981466681,0.5002443790435791],"type":"VEC2"},{"bufferView":47,"componentType":5123,"count":36,"max":[35],"min":[0],"type":"SCALAR"},{"bufferView":48,"componentType":5126,"count":3,"max":[0.4000000059604645],"min":[0],"type":"SCALAR"},{"bufferView":49,"componentType":5126,"count":3,"max":[0.1950438916683197,0.021768176928162575,0.0019012924749404192,0.997621476650238],"min":[-0.08713500201702118,0.021395718678832054,-0.004255873151123524,0.9805518984794617],"type":"VEC4"},{"bufferView":50,"componentType":5126,"count":4,"max":[0.800000011920929],"min":[0],"type":"SCALAR"},{"bufferView":51,"componentType":5126,"count":4,"max":[0.36235177516937256,0.021731872111558914,-0.0019012924749404192,0.995957612991333],"min":[0.08713500201702118,0.020331645384430885,-0.007906544022262096,0.931786060333252],"type":"VEC4"},{"bufferView":52,"componentType":5126,"count":3,"max":[0.4000000059604645],"min":[0],"type":"SCALAR"},{"bufferView":53,"componentType":5126,"count":3,"max":[0.1736481785774231,0,0,0.9961947202682495],"min":[-0.08715574443340302,0,0,0.9848077297210693],"type":"VEC4"},{"bufferView":54,"componentType":5126,"count":4,"max":[0.800000011920929],"min":[0],"type":"SCALAR"},{"bufferView":55,"componentType":5126,"count":4,"max":[0.35225003957748413,0,0,0.9978589415550232],"min":[0.06540312618017197,0,0,0.935905933380127],"type":"VEC4"},{"bufferView":56,"componentType":5126,"count":3,"max":[0.4000000059604645],"min":[0],"type":"SCALAR"},{"bufferView":57,"componentType":5126,"count":3,"max":[0.2797624170780182,0.021768176928162575,0.17183074355125427,0.997621476650238],"min":[-0.06538756191730499,0.010082411579787731,-0.006104437634348869,0.9598214030265808],"type":"VEC4"},{"bufferView":58,"componentType":5126,"count":3,"max":[0.4166699945926666],"min":[0],"type":"SCALAR"},{"bufferView":59,"componentType":5126,"count":3,"max":[0.2498857080936432,27.57882308959961,-0.570445716381073],"min":[0.2498857080936432,20.7216796875,-0.570445716381073],"type":"VEC3"}],"materials":[{"pbrMetallicRoughness":{"metallicFactor":0,"roughnessFactor":1,"baseColorTexture":{"index":0}},"alphaMode":"MASK","alphaCutoff":0.05,"doubleSided":true}],"textures":[{"sampler":0,"source":0,"name":"SkinseedSkin_1754875232975.png"}],"samplers":[{"magFilter":9728,"minFilter":9728,"wrapS":33071,"wrapT":33071}],"images":[{"mimeType":"image/png","name":"SkinseedSkin_1754875232975.png","uri":"SkinseedSkin_1754875232975.png"}],"meshes":[{"primitives":[{"mode":4,"attributes":{"POSITION":0,"NORMAL":1,"TEXCOORD_0":2},"indices":3,"material":0}]},{"primitives":[{"mode":4,"attributes":{"POSITION":4,"NORMAL":5,"TEXCOORD_0":6},"indices":7,"material":0}]},{"primitives":[{"mode":4,"attributes":{"POSITION":8,"NORMAL":9,"TEXCOORD_0":10},"indices":11,"material":0}]},{"primitives":[{"mode":4,"attributes":{"POSITION":12,"NORMAL":13,"TEXCOORD_0":14},"indices":15,"material":0}]},{"primitives":[{"mode":4,"attributes":{"POSITION":16,"NORMAL":17,"TEXCOORD_0":18},"indices":19,"material":0}]},{"primitives":[{"mode":4,"attributes":{"POSITION":20,"NORMAL":21,"TEXCOORD_0":22},"indices":23,"material":0}]},{"primitives":[{"mode":4,"attributes":{"POSITION":24,"NORMAL":25,"TEXCOORD_0":26},"indices":27,"material":0}]},{"primitives":[{"mode":4,"attributes":{"POSITION":28,"NORMAL":29,"TEXCOORD_0":30},"indices":31,"material":0}]},{"primitives":[{"mode":4,"attributes":{"POSITION":32,"NORMAL":33,"TEXCOORD_0":34},"indices":35,"material":0}]},{"primitives":[{"mode":4,"attributes":{"POSITION":36,"NORMAL":37,"TEXCOORD_0":38},"indices":39,"material":0}]},{"primitives":[{"mode":4,"attributes":{"POSITION":40,"NORMAL":41,"TEXCOORD_0":42},"indices":43,"material":0}]},{"primitives":[{"mode":4,"attributes":{"POSITION":44,"NORMAL":45,"TEXCOORD_0":46},"indices":47,"material":0}]}],"animations":[{"name":"walk","samplers":[{"input":48,"output":49,"interpolation":"LINEAR"},{"input":50,"output":51,"interpolation":"LINEAR"},{"input":52,"output":53,"interpolation":"LINEAR"},{"input":54,"output":55,"interpolation":"LINEAR"}],"channels":[{"sampler":0,"target":{"node":5,"path":"rotation"}},{"sampler":1,"target":{"node":8,"path":"rotation"}},{"sampler":2,"target":{"node":16,"path":"rotation"}},{"sampler":3,"target":{"node":19,"path":"rotation"}}]},{"name":"mine","samplers":[{"input":56,"output":57,"interpolation":"LINEAR"}],"channels":[{"sampler":0,"target":{"node":5,"path":"rotation"}}]},{"name":"jump","samplers":[{"input":58,"output":59,"interpolation":"LINEAR"}],"channels":[{"sampler":0,"target":{"node":21,"path":"translation"}}]}]}