# Made in Blockbench 5.1.4
mtllib stonemill.mtl

o cylinder
v 0 0 0.3125
v 0 0.25 0.3125
v 0.008373412263472583 0 0.34375
v 0.008373412263472583 0.25 0.34375
v 0.022876587736527412 0 0.3353765877365274
v 0.022876587736527412 0.25 0.3353765877365274
v 0.031249999999999997 0 0.3208734122634726
v 0.031249999999999997 0.25 0.3208734122634726
v 0.031249999999999997 0 0.3041265877365274
v 0.031249999999999997 0.25 0.3041265877365274
v 0.022876587736527416 0 0.2896234122634726
v 0.022876587736527416 0.25 0.2896234122634726
v 0.008373412263472593 0 0.28125
v 0.008373412263472593 0.25 0.28125
v -0.00837341226347257 0 0.28125
v -0.00837341226347257 0.25 0.28125
v -0.022876587736527412 0 0.2896234122634726
v -0.022876587736527412 0.25 0.2896234122634726
v -0.031249999999999997 0 0.3041265877365274
v -0.031249999999999997 0.25 0.3041265877365274
v -0.03125 0 0.32087341226347255
v -0.03125 0.25 0.32087341226347255
v -0.02287658773652742 0 0.3353765877365274
v -0.02287658773652742 0.25 0.3353765877365274
v -0.00837341226347258 0 0.34375
v -0.00837341226347258 0.25 0.34375
vt 0.01353125 0.99790625
vt 0.00990625 1
vt 0.0078125 0.9921875
vt 0.27553125 0.859375
vt 0.27971875 0.859375
vt 0.27971875 0.921875
vt 0.27553125 0.921875
vt 0.00990625 0.75
vt 0.01353125 0.75209375
vt 0.0078125 0.7578125
vt 0.015625 0.99428125
vt 0.01353125 0.99790625
vt 0.0078125 0.9921875
vt 0.26715625 0.9375
vt 0.27134375 0.9375
vt 0.27134375 1
vt 0.26715625 1
vt 0.01353125 0.75209375
vt 0.015625 0.75571875
vt 0.0078125 0.7578125
vt 0.015625 0.99009375
vt 0.015625 0.99428125
vt 0.0078125 0.9921875
vt 0.27134375 0.9375
vt 0.27553125 0.9375
vt 0.27553125 1
vt 0.27134375 1
vt 0.015625 0.75571875
vt 0.015625 0.75990625
vt 0.0078125 0.7578125
vt 0.01353125 0.98646875
vt 0.015625 0.99009375
vt 0.0078125 0.9921875
vt 0.27553125 0.9375
vt 0.27971875 0.9375
vt 0.27971875 1
vt 0.27553125 1
vt 0.015625 0.75990625
vt 0.01353125 0.76353125
vt 0.0078125 0.7578125
vt 0.00990625 0.984375
vt 0.01353125 0.98646875
vt 0.0078125 0.9921875
vt 0.29840625 0.859375
vt 0.30259375 0.859375
vt 0.30259375 0.921875
vt 0.29840625 0.921875
vt 0.01353125 0.76353125
vt 0.00990625 0.765625
vt 0.0078125 0.7578125
vt 0.00571875 0.984375
vt 0.00990625 0.984375
vt 0.0078125 0.9921875
vt 0.30259375 0.859375
vt 0.30678125 0.859375
vt 0.30678125 0.921875
vt 0.30259375 0.921875
vt 0.00990625 0.765625
vt 0.00571875 0.765625
vt 0.0078125 0.7578125
vt 0.00209375 0.98646875
vt 0.00571875 0.984375
vt 0.0078125 0.9921875
vt 0.30678125 0.859375
vt 0.31096875 0.859375
vt 0.31096875 0.921875
vt 0.30678125 0.921875
vt 0.00571875 0.765625
vt 0.00209375 0.76353125
vt 0.0078125 0.7578125
vt 0 0.99009375
vt 0.00209375 0.98646875
vt 0.0078125 0.9921875
vt 0.29840625 0.9375
vt 0.30259375 0.9375
vt 0.30259375 1
vt 0.29840625 1
vt 0.00209375 0.76353125
vt 0 0.75990625
vt 0.0078125 0.7578125
vt 0 0.99428125
vt 0 0.99009375
vt 0.0078125 0.9921875
vt 0.30259375 0.9375
vt 0.30678125 0.9375
vt 0.30678125 1
vt 0.30259375 1
vt 0 0.75990625
vt 0 0.75571875
vt 0.0078125 0.7578125
vt 0.00209375 0.99790625
vt 0 0.99428125
vt 0.0078125 0.9921875
vt 0.30678125 0.9375
vt 0.31096875 0.9375
vt 0.31096875 1
vt 0.30678125 1
vt 0 0.75571875
vt 0.00209375 0.75209375
vt 0.0078125 0.7578125
vt 0.00571875 1
vt 0.00209375 0.99790625
vt 0.0078125 0.9921875
vt 0.26715625 0.859375
vt 0.27134375 0.859375
vt 0.27134375 0.921875
vt 0.26715625 0.921875
vt 0.00209375 0.75209375
vt 0.00571875 0.75
vt 0.0078125 0.7578125
vt 0.00990625 1
vt 0.00571875 1
vt 0.0078125 0.9921875
vt 0.27134375 0.859375
vt 0.27553125 0.859375
vt 0.27553125 0.921875
vt 0.27134375 0.921875
vt 0.00571875 0.75
vt 0.00990625 0.75
vt 0.0078125 0.7578125
vn 0 -1 0
vn 0.4999999999999999 0 0.8660254037844388
vn 0 1 0
vn 0 -1 0
vn 0.8660254037844388 0 0.5
vn 0 1 0
vn 0 -1 0
vn 1 0 0
vn 0 1 0
vn 0 -1 0
vn 0.8660254037844388 0 -0.5
vn 0 1 0
vn 0 -1 0
vn 0.5000000000000001 0 -0.8660254037844388
vn 0 1 0
vn 0 -1 0
vn 4.143408735633879e-16 0 -1
vn 0 1 0
vn 0 -1 0
vn -0.4999999999999996 0 -0.8660254037844389
vn 0 1 0
vn 0 -1 0
vn -0.8660254037844389 0 -0.4999999999999998
vn 0 1 0
vn 0 -1 0
vn -1 0 -2.0717043678169412e-16
vn 0 1 0
vn 0 -1 0
vn -0.8660254037844389 0 0.4999999999999996
vn 0 1 0
vn 0 -1 0
vn -0.4999999999999999 0 0.8660254037844386
vn 0 1 0
vn 0 -1 0
vn 0 0 1
vn 0 1 0
usemtl m_23cd2ce4-3b7e-f756-8684-44b2c70f42d4
f 5/1/1 3/2/1 1/3/1
f 3/4/2 5/5/2 6/6/2 4/7/2
f 4/8/3 6/9/3 2/10/3
f 7/11/4 5/12/4 1/13/4
f 5/14/5 7/15/5 8/16/5 6/17/5
f 6/18/6 8/19/6 2/20/6
f 9/21/7 7/22/7 1/23/7
f 7/24/8 9/25/8 10/26/8 8/27/8
f 8/28/9 10/29/9 2/30/9
f 11/31/10 9/32/10 1/33/10
f 9/34/11 11/35/11 12/36/11 10/37/11
f 10/38/12 12/39/12 2/40/12
f 13/41/13 11/42/13 1/43/13
f 11/44/14 13/45/14 14/46/14 12/47/14
f 12/48/15 14/49/15 2/50/15
f 15/51/16 13/52/16 1/53/16
f 13/54/17 15/55/17 16/56/17 14/57/17
f 14/58/18 16/59/18 2/60/18
f 17/61/19 15/62/19 1/63/19
f 15/64/20 17/65/20 18/66/20 16/67/20
f 16/68/21 18/69/21 2/70/21
f 19/71/22 17/72/22 1/73/22
f 17/74/23 19/75/23 20/76/23 18/77/23
f 18/78/24 20/79/24 2/80/24
f 21/81/25 19/82/25 1/83/25
f 19/84/26 21/85/26 22/86/26 20/87/26
f 20/88/27 22/89/27 2/90/27
f 23/91/28 21/92/28 1/93/28
f 21/94/29 23/95/29 24/96/29 22/97/29
f 22/98/30 24/99/30 2/100/30
f 25/101/31 23/102/31 1/103/31
f 23/104/32 25/105/32 26/106/32 24/107/32
f 24/108/33 26/109/33 2/110/33
f 3/111/34 25/112/34 1/113/34
f 25/114/35 3/115/35 4/116/35 26/117/35
f 26/118/36 4/119/36 2/120/36
o cylinder
v 0 -0.5 0
v 0 -0.125 0
v 0.13397459621556132 -0.5 0.49999999999999994
v 0.13397459621556132 -0.125 0.49999999999999994
v 0.3660254037844386 -0.5 0.36602540378443865
v 0.3660254037844386 -0.125 0.36602540378443865
v 0.49999999999999994 -0.5 0.13397459621556132
v 0.49999999999999994 -0.125 0.13397459621556132
v 0.49999999999999994 -0.5 -0.13397459621556138
v 0.49999999999999994 -0.125 -0.13397459621556138
v 0.36602540378443865 -0.5 -0.3660254037844386
v 0.36602540378443865 -0.125 -0.3660254037844386
v 0.1339745962155615 -0.5 -0.4999999999999999
v 0.1339745962155615 -0.125 -0.4999999999999999
v -0.13397459621556113 -0.5 -0.5
v -0.13397459621556113 -0.125 -0.5
v -0.3660254037844386 -0.5 -0.3660254037844387
v -0.3660254037844386 -0.125 -0.3660254037844387
v -0.49999999999999994 -0.5 -0.13397459621556126
v -0.49999999999999994 -0.125 -0.13397459621556126
v -0.5 -0.5 0.1339745962155611
v -0.5 -0.125 0.1339745962155611
v -0.3660254037844387 -0.5 0.36602540378443854
v -0.3660254037844387 -0.125 0.36602540378443854
v -0.1339745962155613 -0.5 0.49999999999999994
v -0.1339745962155613 -0.125 0.49999999999999994
vt 0.21650625 0.96650625
vt 0.15849375 1
vt 0.125 0.875
vt 0.72880625 0.796875
vt 0.7957937500000001 0.796875
vt 0.7957937500000001 0.890625
vt 0.72880625 0.890625
vt 0.36161875 0.53125
vt 0.41963125 0.56474375
vt 0.328125 0.65625
vt 0.25 0.90849375
vt 0.21650625 0.96650625
vt 0.125 0.875
vt 0.59483125 0.90625
vt 0.66181875 0.90625
vt 0.66181875 1
vt 0.59483125 1
vt 0.41963125 0.56474375
vt 0.453125 0.62275625
vt 0.328125 0.65625
vt 0.25 0.84150625
vt 0.25 0.90849375
vt 0.125 0.875
vt 0.66181875 0.90625
vt 0.72880625 0.90625
vt 0.72880625 1
vt 0.66181875 1
vt 0.453125 0.62275625
vt 0.453125 0.68974375
vt 0.328125 0.65625
vt 0.21650625 0.78349375
vt 0.25 0.84150625
vt 0.125 0.875
vt 0.72880625 0.90625
vt 0.7957937500000001 0.90625
vt 0.7957937500000001 1
vt 0.72880625 1
vt 0.453125 0.68974375
vt 0.41963125 0.74775625
vt 0.328125 0.65625
vt 0.15849375 0.75
vt 0.21650625 0.78349375
vt 0.125 0.875
vt 0.59483125 0.3125
vt 0.66181875 0.3125
vt 0.66181875 0.40625
vt 0.59483125 0.40625
vt 0.41963125 0.74775625
vt 0.36161875 0.78125
vt 0.328125 0.65625
vt 0.09150625 0.75
vt 0.15849375 0.75
vt 0.125 0.875
vt 0.66181875 0.3125
vt 0.72880625 0.3125
vt 0.72880625 0.40625
vt 0.66181875 0.40625
vt 0.36161875 0.78125
vt 0.29463125 0.78125
vt 0.328125 0.65625
vt 0.03349375 0.78349375
vt 0.09150625 0.75
vt 0.125 0.875
vt 0.72880625 0.3125
vt 0.7957937500000001 0.3125
vt 0.7957937500000001 0.40625
vt 0.72880625 0.40625
vt 0.29463125 0.78125
vt 0.23661875 0.74775625
vt 0.328125 0.65625
vt 0 0.84150625
vt 0.03349375 0.78349375
vt 0.125 0.875
vt 0.21983124999999998 0.3125
vt 0.28681875 0.3125
vt 0.28681875 0.40625
vt 0.21983124999999998 0.40625
vt 0.23661875 0.74775625
vt 0.203125 0.68974375
vt 0.328125 0.65625
vt 0 0.90849375
vt 0 0.84150625
vt 0.125 0.875
vt 0.28681875 0.3125
vt 0.35380625 0.3125
vt 0.35380625 0.40625
vt 0.28681875 0.40625
vt 0.203125 0.68974375
vt 0.203125 0.62275625
vt 0.328125 0.65625
vt 0.03349375 0.96650625
vt 0 0.90849375
vt 0.125 0.875
vt 0.35380625 0.3125
vt 0.42079375 0.3125
vt 0.42079375 0.40625
vt 0.35380625 0.40625
vt 0.203125 0.62275625
vt 0.23661875 0.56474375
vt 0.328125 0.65625
vt 0.09150625 1
vt 0.03349375 0.96650625
vt 0.125 0.875
vt 0.59483125 0.796875
vt 0.66181875 0.796875
vt 0.66181875 0.890625
vt 0.59483125 0.890625
vt 0.23661875 0.56474375
vt 0.29463125 0.53125
vt 0.328125 0.65625
vt 0.15849375 1
vt 0.09150625 1
vt 0.125 0.875
vt 0.66181875 0.796875
vt 0.72880625 0.796875
vt 0.72880625 0.890625
vt 0.66181875 0.890625
vt 0.29463125 0.53125
vt 0.36161875 0.53125
vt 0.328125 0.65625
vn 0 -1 0
vn 0.4999999999999999 0 0.8660254037844387
vn 0 1 0
vn 0 -1 0
vn 0.8660254037844387 0 0.49999999999999994
vn 0 1 0
vn 0 -1 0
vn 1 0 0
vn 0 1 0
vn 0 -1 0
vn 0.8660254037844387 0 -0.49999999999999994
vn 0 1 0
vn 0 -1 0
vn 0.5000000000000001 0 -0.8660254037844386
vn 0 1 0
vn 0 -1 0
vn 4.143408735633879e-16 0 -1
vn 0 1 0
vn 0 -1 0
vn -0.4999999999999995 0 -0.8660254037844389
vn 0 1 0
vn 0 -1 0
vn -0.8660254037844388 0 -0.4999999999999997
vn 0 1 0
vn 0 -1 0
vn -1 0 -2.0717043678169412e-16
vn 0 1 0
vn 0 -1 0
vn -0.8660254037844389 0 0.4999999999999996
vn 0 1 0
vn 0 -1 0
vn -0.49999999999999994 0 0.8660254037844387
vn 0 1 0
vn 0 -1 0
vn 0 0 1
vn 0 1 0
usemtl m_23cd2ce4-3b7e-f756-8684-44b2c70f42d4
f 31/121/37 29/122/37 27/123/37
f 29/124/38 31/125/38 32/126/38 30/127/38
f 30/128/39 32/129/39 28/130/39
f 33/131/40 31/132/40 27/133/40
f 31/134/41 33/135/41 34/136/41 32/137/41
f 32/138/42 34/139/42 28/140/42
f 35/141/43 33/142/43 27/143/43
f 33/144/44 35/145/44 36/146/44 34/147/44
f 34/148/45 36/149/45 28/150/45
f 37/151/46 35/152/46 27/153/46
f 35/154/47 37/155/47 38/156/47 36/157/47
f 36/158/48 38/159/48 28/160/48
f 39/161/49 37/162/49 27/163/49
f 37/164/50 39/165/50 40/166/50 38/167/50
f 38/168/51 40/169/51 28/170/51
f 41/171/52 39/172/52 27/173/52
f 39/174/53 41/175/53 42/176/53 40/177/53
f 40/178/54 42/179/54 28/180/54
f 43/181/55 41/182/55 27/183/55
f 41/184/56 43/185/56 44/186/56 42/187/56
f 42/188/57 44/189/57 28/190/57
f 45/191/58 43/192/58 27/193/58
f 43/194/59 45/195/59 46/196/59 44/197/59
f 44/198/60 46/199/60 28/200/60
f 47/201/61 45/202/61 27/203/61
f 45/204/62 47/205/62 48/206/62 46/207/62
f 46/208/63 48/209/63 28/210/63
f 49/211/64 47/212/64 27/213/64
f 47/214/65 49/215/65 50/216/65 48/217/65
f 48/218/66 50/219/66 28/220/66
f 51/221/67 49/222/67 27/223/67
f 49/224/68 51/225/68 52/226/68 50/227/68
f 50/228/69 52/229/69 28/230/69
f 29/231/70 51/232/70 27/233/70
f 51/234/71 29/235/71 30/236/71 52/237/71
f 52/238/72 30/239/72 28/240/72
o cylinder
v 0 -0.15625 0
v 0 -0.09375 0
v 0.08373412263472584 -0.15625 0.3125
v 0.08373412263472584 -0.09375 0.3125
v 0.22876587736527412 -0.15625 0.22876587736527415
v 0.22876587736527412 -0.09375 0.22876587736527415
v 0.3125 -0.15625 0.08373412263472584
v 0.3125 -0.09375 0.08373412263472584
v 0.3125 -0.15625 -0.08373412263472586
v 0.3125 -0.09375 -0.08373412263472586
v 0.22876587736527415 -0.15625 -0.22876587736527412
v 0.22876587736527415 -0.09375 -0.22876587736527412
v 0.08373412263472592 -0.15625 -0.3124999999999999
v 0.08373412263472592 -0.09375 -0.3124999999999999
v -0.0837341226347257 -0.15625 -0.31250000000000006
v -0.0837341226347257 -0.09375 -0.31250000000000006
v -0.22876587736527412 -0.15625 -0.2287658773652742
v -0.22876587736527412 -0.09375 -0.2287658773652742
v -0.3125 -0.15625 -0.08373412263472581
v -0.3125 -0.09375 -0.08373412263472581
v -0.31250000000000006 -0.15625 0.08373412263472568
v -0.31250000000000006 -0.09375 0.08373412263472568
v -0.2287658773652742 -0.15625 0.2287658773652741
v -0.2287658773652742 -0.09375 0.2287658773652741
v -0.08373412263472582 -0.15625 0.3125
v -0.08373412263472582 -0.09375 0.3125
vt 0.5728171875 0.5415671875
vt 0.5365578125 0.5625
vt 0.515625 0.484375
vt 0.3256203125 0.453125
vt 0.3674859375 0.453125
vt 0.3674859375 0.46875
vt 0.3256203125 0.46875
vt 0.5678078125 0.609375
vt 0.6040671875 0.6303078125
vt 0.546875 0.6875
vt 0.59375 0.5053078125
vt 0.5728171875 0.5415671875
vt 0.515625 0.484375
vt 0.4762640625 0.578125
vt 0.5181296875 0.578125
vt 0.5181296875 0.59375
vt 0.4762640625 0.59375
vt 0.6040671875 0.6303078125
vt 0.625 0.6665671875
vt 0.546875 0.6875
vt 0.59375 0.4634421875
vt 0.59375 0.5053078125
vt 0.515625 0.484375
vt 0.5181296875 0.578125
vt 0.5599953125 0.578125
vt 0.5599953125 0.59375
vt 0.5181296875 0.59375
vt 0.625 0.6665671875
vt 0.625 0.7084328125
vt 0.546875 0.6875
vt 0.5728171875 0.4271828125
vt 0.59375 0.4634421875
vt 0.515625 0.484375
vt 0.5599953125 0.578125
vt 0.6018609375 0.578125
vt 0.6018609375 0.59375
vt 0.5599953125 0.59375
vt 0.625 0.7084328125
vt 0.6040671875 0.7446921875
vt 0.546875 0.6875
vt 0.5365578125 0.40625
vt 0.5728171875 0.4271828125
vt 0.515625 0.484375
vt 0.4450140625 0.375
vt 0.4868796875 0.375
vt 0.4868796875 0.390625
vt 0.4450140625 0.390625
vt 0.6040671875 0.7446921875
vt 0.5678078125 0.765625
vt 0.546875 0.6875
vt 0.4946921875 0.40625
vt 0.5365578125 0.40625
vt 0.515625 0.484375
vt 0.4868796875 0.375
vt 0.5287453125 0.375
vt 0.5287453125 0.390625
vt 0.4868796875 0.390625
vt 0.5678078125 0.765625
vt 0.5259421875 0.765625
vt 0.546875 0.6875
vt 0.4584328125 0.4271828125
vt 0.4946921875 0.40625
vt 0.515625 0.484375
vt 0.5287453125 0.375
vt 0.5706109375 0.375
vt 0.5706109375 0.390625
vt 0.5287453125 0.390625
vt 0.5259421875 0.765625
vt 0.4896828125 0.7446921875
vt 0.546875 0.6875
vt 0.4375 0.4634421875
vt 0.4584328125 0.4271828125
vt 0.515625 0.484375
vt 0.2418890625 0.421875
vt 0.2837546875 0.421875
vt 0.2837546875 0.4375
vt 0.2418890625 0.4375
vt 0.4896828125 0.7446921875
vt 0.46875 0.7084328125
vt 0.546875 0.6875
vt 0.4375 0.5053078125
vt 0.4375 0.4634421875
vt 0.515625 0.484375
vt 0.2837546875 0.421875
vt 0.3256203125 0.421875
vt 0.3256203125 0.4375
vt 0.2837546875 0.4375
vt 0.46875 0.7084328125
vt 0.46875 0.6665671875
vt 0.546875 0.6875
vt 0.4584328125 0.5415671875
vt 0.4375 0.5053078125
vt 0.515625 0.484375
vt 0.3256203125 0.421875
vt 0.3674859375 0.421875
vt 0.3674859375 0.4375
vt 0.3256203125 0.4375
vt 0.46875 0.6665671875
vt 0.4896828125 0.6303078125
vt 0.546875 0.6875
vt 0.4946921875 0.5625
vt 0.4584328125 0.5415671875
vt 0.515625 0.484375
vt 0.2418890625 0.453125
vt 0.2837546875 0.453125
vt 0.2837546875 0.46875
vt 0.2418890625 0.46875
vt 0.4896828125 0.6303078125
vt 0.5259421875 0.609375
vt 0.546875 0.6875
vt 0.5365578125 0.5625
vt 0.4946921875 0.5625
vt 0.515625 0.484375
vt 0.2837546875 0.453125
vt 0.3256203125 0.453125
vt 0.3256203125 0.46875
vt 0.2837546875 0.46875
vt 0.5259421875 0.609375
vt 0.5678078125 0.609375
vt 0.546875 0.6875
vn 0 -1 0
vn 0.5000000000000001 0 0.8660254037844388
vn 0 1 0
vn 0 -1 0
vn 0.8660254037844386 0 0.5000000000000001
vn 0 1 0
vn 0 -1 0
vn 1 0 0
vn 0 1 0
vn 0 -1 0
vn 0.8660254037844387 0 -0.5000000000000002
vn 0 1 0
vn 0 -1 0
vn 0.49999999999999983 0 -0.8660254037844388
vn 0 1 0
vn 0 -1 0
vn 9.94418096552131e-16 0 -1
vn 0 1 0
vn 0 -1 0
vn -0.4999999999999998 0 -0.8660254037844388
vn 0 1 0
vn 0 -1 0
vn -0.8660254037844387 0 -0.49999999999999983
vn 0 1 0
vn 0 -1 0
vn -1 0 -3.3147269885071057e-16
vn 0 1 0
vn 0 -1 0
vn -0.8660254037844388 0 0.4999999999999998
vn 0 1 0
vn 0 -1 0
vn -0.5000000000000001 0 0.8660254037844386
vn 0 1 0
vn 0 -1 0
vn 0 0 1
vn 0 1 0
usemtl m_23cd2ce4-3b7e-f756-8684-44b2c70f42d4
f 57/241/73 55/242/73 53/243/73
f 55/244/74 57/245/74 58/246/74 56/247/74
f 56/248/75 58/249/75 54/250/75
f 59/251/76 57/252/76 53/253/76
f 57/254/77 59/255/77 60/256/77 58/257/77
f 58/258/78 60/259/78 54/260/78
f 61/261/79 59/262/79 53/263/79
f 59/264/80 61/265/80 62/266/80 60/267/80
f 60/268/81 62/269/81 54/270/81
f 63/271/82 61/272/82 53/273/82
f 61/274/83 63/275/83 64/276/83 62/277/83
f 62/278/84 64/279/84 54/280/84
f 65/281/85 63/282/85 53/283/85
f 63/284/86 65/285/86 66/286/86 64/287/86
f 64/288/87 66/289/87 54/290/87
f 67/291/88 65/292/88 53/293/88
f 65/294/89 67/295/89 68/296/89 66/297/89
f 66/298/90 68/299/90 54/300/90
f 69/301/91 67/302/91 53/303/91
f 67/304/92 69/305/92 70/306/92 68/307/92
f 68/308/93 70/309/93 54/310/93
f 71/311/94 69/312/94 53/313/94
f 69/314/95 71/315/95 72/316/95 70/317/95
f 70/318/96 72/319/96 54/320/96
f 73/321/97 71/322/97 53/323/97
f 71/324/98 73/325/98 74/326/98 72/327/98
f 72/328/99 74/329/99 54/330/99
f 75/331/100 73/332/100 53/333/100
f 73/334/101 75/335/101 76/336/101 74/337/101
f 74/338/102 76/339/102 54/340/102
f 77/341/103 75/342/103 53/343/103
f 75/344/104 77/345/104 78/346/104 76/347/104
f 76/348/105 78/349/105 54/350/105
f 55/351/106 77/352/106 53/353/106
f 77/354/107 55/355/107 56/356/107 78/357/107
f 78/358/108 56/359/108 54/360/108
o cylinder
v -1.61907524424502e-18 -0.09375 -3.469446951953614e-18
v -1.61907524424502e-18 0.03125 -3.469446951953614e-18
v 0.11722777168861616 -0.09375 0.4375
v 0.11722777168861616 0.03125 0.4375
v 0.32027222831138374 -0.09375 0.3202722283113838
v 0.32027222831138374 0.03125 0.3202722283113838
v 0.4375 -0.09375 0.11722777168861614
v 0.4375 0.03125 0.11722777168861614
v 0.4375 -0.09375 -0.1172277716886162
v 0.4375 0.03125 -0.1172277716886162
v 0.3202722283113838 -0.09375 -0.3202722283113838
v 0.3202722283113838 0.03125 -0.3202722283113838
v 0.1172277716886163 -0.09375 -0.4374999999999999
v 0.1172277716886163 0.03125 -0.4374999999999999
v -0.11722777168861598 -0.09375 -0.4375
v -0.11722777168861598 0.03125 -0.4375
v -0.3202722283113838 -0.09375 -0.3202722283113839
v -0.3202722283113838 0.03125 -0.3202722283113839
v -0.4374999999999999 -0.09375 -0.11722777168861612
v -0.4374999999999999 0.03125 -0.11722777168861612
v -0.4375 -0.09375 0.11722777168861595
v -0.4375 0.03125 0.11722777168861595
v -0.3202722283113839 -0.09375 0.3202722283113838
v -0.3202722283113839 0.03125 0.3202722283113838
v -0.11722777168861613 -0.09375 0.4375
v -0.11722777168861613 0.03125 0.4375
vt 0.54881875 0.97069375
vt 0.49805625 1
vt 0.46875 0.890625
vt 0.12305625 0.65625
vt 0.18166875 0.65625
vt 0.18166875 0.6875
vt 0.12305625 0.6875
vt 0.13868125 0.375
vt 0.18944375 0.40430625
vt 0.109375 0.484375
vt 0.578125 0.91993125
vt 0.54881875 0.97069375
vt 0.46875 0.890625
vt 0.00583125000000001 0.703125
vt 0.06444375 0.703125
vt 0.06444375 0.734375
vt 0.00583125000000001 0.734375
vt 0.18944375 0.40430625
vt 0.21875 0.45506875
vt 0.109375 0.484375
vt 0.578125 0.86131875
vt 0.578125 0.91993125
vt 0.46875 0.890625
vt 0.06444375 0.703125
vt 0.12305625 0.703125
vt 0.12305625 0.734375
vt 0.06444375 0.734375
vt 0.21875 0.45506875
vt 0.21875 0.51368125
vt 0.109375 0.484375
vt 0.54881875 0.81055625
vt 0.578125 0.86131875
vt 0.46875 0.890625
vt 0.12305625 0.703125
vt 0.18166875 0.703125
vt 0.18166875 0.734375
vt 0.12305625 0.734375
vt 0.21875 0.51368125
vt 0.18944375 0.56444375
vt 0.109375 0.484375
vt 0.49805625 0.78125
vt 0.54881875 0.81055625
vt 0.46875 0.890625
vt 0.24020625 0.484375
vt 0.29881875 0.484375
vt 0.29881875 0.515625
vt 0.24020625 0.515625
vt 0.18944375 0.56444375
vt 0.13868125 0.59375
vt 0.109375 0.484375
vt 0.43944375 0.78125
vt 0.49805625 0.78125
vt 0.46875 0.890625
vt 0.29881875 0.484375
vt 0.35743125 0.484375
vt 0.35743125 0.515625
vt 0.29881875 0.515625
vt 0.13868125 0.59375
vt 0.08006875 0.59375
vt 0.109375 0.484375
vt 0.38868125 0.81055625
vt 0.43944375 0.78125
vt 0.46875 0.890625
vt 0.35743125 0.484375
vt 0.41604375 0.484375
vt 0.41604375 0.515625
vt 0.35743125 0.515625
vt 0.08006875 0.59375
vt 0.029306250000000006 0.56444375
vt 0.109375 0.484375
vt 0.359375 0.86131875
vt 0.38868125 0.81055625
vt 0.46875 0.890625
vt 0.00583125000000001 0.609375
vt 0.06444375 0.609375
vt 0.06444375 0.640625
vt 0.00583125000000001 0.640625
vt 0.029306250000000006 0.56444375
vt 0 0.51368125
vt 0.109375 0.484375
vt 0.359375 0.91993125
vt 0.359375 0.86131875
vt 0.46875 0.890625
vt 0.06444375 0.609375
vt 0.12305625 0.609375
vt 0.12305625 0.640625
vt 0.06444375 0.640625
vt 0 0.51368125
vt 0 0.45506875
vt 0.109375 0.484375
vt 0.38868125 0.97069375
vt 0.359375 0.91993125
vt 0.46875 0.890625
vt 0.12305625 0.609375
vt 0.18166875 0.609375
vt 0.18166875 0.640625
vt 0.12305625 0.640625
vt 0 0.45506875
vt 0.029306250000000006 0.40430625
vt 0.109375 0.484375
vt 0.43944375 1
vt 0.38868125 0.97069375
vt 0.46875 0.890625
vt 0.00583125000000001 0.65625
vt 0.06444375 0.65625
vt 0.06444375 0.6875
vt 0.00583125000000001 0.6875
vt 0.029306250000000006 0.40430625
vt 0.08006875 0.375
vt 0.109375 0.484375
vt 0.49805625 1
vt 0.43944375 1
vt 0.46875 0.890625
vt 0.06444375 0.65625
vt 0.12305625 0.65625
vt 0.12305625 0.6875
vt 0.06444375 0.6875
vt 0.08006875 0.375
vt 0.13868125 0.375
vt 0.109375 0.484375
vn 0 -1 0
vn 0.5000000000000001 0 0.8660254037844386
vn 0 1 0
vn 0 -1 0
vn 0.8660254037844387 0 0.5000000000000003
vn 0 1 0
vn 0 -1 0
vn 1 0 0
vn 0 1 0
vn 0 -1 0
vn 0.8660254037844386 0 -0.5000000000000001
vn 0 1 0
vn 0 -1 0
vn 0.5 0 -0.8660254037844388
vn 0 1 0
vn 0 -1 0
vn 4.735324269295861e-16 0 -1
vn 0 1 0
vn 0 -1 0
vn -0.49999999999999933 0 -0.866025403784439
vn 0 1 0
vn 0 -1 0
vn -0.866025403784439 0 -0.4999999999999994
vn 0 1 0
vn 0 -1 0
vn -1 0 -4.735324269295866e-16
vn 0 1 0
vn 0 -1 0
vn -0.866025403784439 0 0.4999999999999993
vn 0 1 0
vn 0 -1 0
vn -0.49999999999999983 0 0.8660254037844388
vn 0 1 0
vn 0 -1 0
vn 0 0 1
vn 0 1 0
usemtl m_23cd2ce4-3b7e-f756-8684-44b2c70f42d4
f 83/361/109 81/362/109 79/363/109
f 81/364/110 83/365/110 84/366/110 82/367/110
f 82/368/111 84/369/111 80/370/111
f 85/371/112 83/372/112 79/373/112
f 83/374/113 85/375/113 86/376/113 84/377/113
f 84/378/114 86/379/114 80/380/114
f 87/381/115 85/382/115 79/383/115
f 85/384/116 87/385/116 88/386/116 86/387/116
f 86/388/117 88/389/117 80/390/117
f 89/391/118 87/392/118 79/393/118
f 87/394/119 89/395/119 90/396/119 88/397/119
f 88/398/120 90/399/120 80/400/120
f 91/401/121 89/402/121 79/403/121
f 89/404/122 91/405/122 92/406/122 90/407/122
f 90/408/123 92/409/123 80/410/123
f 93/411/124 91/412/124 79/413/124
f 91/414/125 93/415/125 94/416/125 92/417/125
f 92/418/126 94/419/126 80/420/126
f 95/421/127 93/422/127 79/423/127
f 93/424/128 95/425/128 96/426/128 94/427/128
f 94/428/129 96/429/129 80/430/129
f 97/431/130 95/432/130 79/433/130
f 95/434/131 97/435/131 98/436/131 96/437/131
f 96/438/132 98/439/132 80/440/132
f 99/441/133 97/442/133 79/443/133
f 97/444/134 99/445/134 100/446/134 98/447/134
f 98/448/135 100/449/135 80/450/135
f 101/451/136 99/452/136 79/453/136
f 99/454/137 101/455/137 102/456/137 100/457/137
f 100/458/138 102/459/138 80/460/138
f 103/461/139 101/462/139 79/463/139
f 101/464/140 103/465/140 104/466/140 102/467/140
f 102/468/141 104/469/141 80/470/141
f 81/471/142 103/472/142 79/473/142
f 103/474/143 81/475/143 82/476/143 104/477/143
f 104/478/144 82/479/144 80/480/144